<svg xmlns="http://www.w3.org/2000/svg" viewBox="0 0 32 32">
  <rect width="32" height="32" rx="8" fill="#2563eb"/>
  <path d="M9 8h6a2 2 0 012 2v12a2 2 0 01-2 2H9a2 2 0 01-2-2V10a2 2 0 012-2z" fill="rgba(255,255,255,0.3)"/>
  <path d="M17 8h6a2 2 0 012 2v12a2 2 0 01-2 2h-6a2 2 0 01-2-2V10a2 2 0 012-2z" fill="rgba(255,255,255,0.5)"/>
  <rect x="10" y="11" width="4" height="1.5" rx="0.75" fill="white"/>
  <rect x="10" y="14" width="3" height="1.5" rx="0.75" fill="white" opacity="0.7"/>
  <rect x="18" y="11" width="4" height="1.5" rx="0.75" fill="white"/>
  <rect x="18" y="14" width="3" height="1.5" rx="0.75" fill="white" opacity="0.7"/>
  <rect x="18" y="17" width="2" height="1.5" rx="0.75" fill="white" opacity="0.5"/>
</svg>
